# xmcd
#
# Track frame offsets:
#	150
#	15738
#	32276
#	47303
#	60206
#
# Disc length: 1018 seconds
#
# Revision: 0
# Processed by: cddbd v1.4PL0 Copyright (c) Steve Scherf et al.
# Submitted via: dBpowerAMP V4.0
#
DISCID=2703f805
DTITLE=Tim Murphy - Tim Murphy
DYEAR=1900
DGENRE=Country
TTITLE0=It's A Country Thing
TTITLE1=Bottom Of The Fifth
TTITLE2=Wild Wild West 
TTITLE3=A River Runs
TTITLE4=Good Hands 
EXTD=
EXTT0=
EXTT1=
EXTT2=
EXTT3=
EXTT4=
PLAYORDER=
